# xmcd
#
# Track frame offsets:
#	150
#	14570
#	34839
#	63417
#	79243
#	105494
#	127719
#	146568
#	160004
#	184922
#	201392
#
# Disc length: 3000 seconds
#
# Revision: 0
# Processed by: cddbd v1.4PL0 Copyright (c) Steve Scherf et al.
# Submitted via: dBpowerAMP V4.0
#
DISCID=920bb60b
DTITLE=Bo Ramsey - In The Weeds
DYEAR=1997
DGENRE=Blues
TTITLE0=In The Weeds
TTITLE1=Desert Flower
TTITLE2=Precious
TTITLE3=Everything Is Comin' Down
TTITLE4=Big Bill
TTITLE5=Sidetrack Lounge
TTITLE6=King Of Clubs
TTITLE7=Trapped Again
TTITLE8=Ain't It Hard
TTITLE9=Forget You
TTITLE10=Living In A Cornfield
EXTD=produced by Bo Ramsey\n1997 Dixiefrog Records
EXTT0=
EXTT1=
EXTT2=
EXTT3=
EXTT4=
EXTT5=
EXTT6=
EXTT7=
EXTT8=
EXTT9=
EXTT10=
PLAYORDER=
